<?xml version="1.0" encoding="UTF-8" standalone="no"?>
<!-- Uploaded to: SVG Repo, www.svgrepo.com, Generator: SVG Repo Mixer Tools -->

<svg
   version="1.1"
   id="Layer_1"
   width="800"
   height="800"
   viewBox="0 0 128 128"
   enable-background="new 0 0 128 128"
   xml:space="preserve"
   xmlns="http://www.w3.org/2000/svg"
   xmlns:svg="http://www.w3.org/2000/svg"><defs
   id="defs8" />
<g
   id="g2"
   style="fill:#363636ff;fill-opacity:1">
	<g
   id="g1"
   style="fill:#363636ff;fill-opacity:1">
		<path
   fill="#546E7A"
   d="m 108,24 h -7.223 L 105.5,27.75 105.113,32 H 108 c 4.41,0 8,3.586 8,8 v 48 c 0,4.414 -3.59,8 -8,8 H 68 v 4 c 0,2.211 -1.789,4 -4,4 -2.211,0 -4,-1.789 -4,-4 V 96 H 20 c -4.41,0 -8,-3.586 -8,-8 V 40 c 0,-4.414 3.59,-8 8,-8 h 3.707 L 24.25,28.75 29,24 H 20 C 11.164,24 4,31.164 4,40 v 48 c 0,8.836 7.164,16 16,16 h 32.738 c 1.656,4.648 6.055,8 11.262,8 5.207,0 9.605,-3.352 11.262,-8 H 108 c 8.836,0 16,-7.164 16,-16 V 40 c 0,-8.836 -7.164,-16 -16,-16 z"
   id="path1"
   style="fill:#363636ff;fill-opacity:1" />
	</g>
</g>






<path
   fill="#B0BEC5"
   d="M 84,16 C 77.086,16 70.215,17.852 64,21.367 57.785,17.852 50.914,16 44,16 c -8.422,0 -16.844,2.602 -24,7.82 0,16.273 0,64.93 0,65.18 0,2.211 1.789,4 4,4 0.395,0 13.832,-4.82 20,-4.82 6.355,0 12.656,1.625 18.461,4.609 l 0.066,-0.039 0.004,-0.008 c 0.457,0.18 0.945,0.297 1.469,0.297 0.524,0 1.012,-0.117 1.469,-0.297 l 0.004,0.008 0.066,0.039 C 71.344,89.805 77.645,88.18 84,88.18 c 6.168,0 19.605,4.82 20,4.82 2.211,0 4,-1.789 4,-4 0,-0.25 0,-48.906 0,-65.18 C 100.844,18.602 92.422,16 84,16 Z M 28,82.844 V 28.195 c 4.875,-2.742 10.336,-4.172 16,-4.172 5.664,0 11.125,1.43 16,4.172 0,12.883 0,41.766 0,54.648 -5.098,-1.781 -10.484,-2.688 -16,-2.688 -5.516,0 -10.902,0.908 -16,2.689 z m 72,0 c -5.098,-1.781 -10.484,-2.688 -16,-2.688 -5.516,0 -10.902,0.906 -16,2.688 0,-12.883 0,-41.766 0,-54.648 4.875,-2.742 10.336,-4.172 16,-4.172 5.664,0 11.125,1.43 16,4.172 z"
   id="path8"
   style="fill:#363636ff;fill-opacity:1" />
</svg>
